<mxfile host="app.diagrams.net" agent="Mozilla/5.0 (Windows NT 10.0; Win64; x64) AppleWebKit/537.36 (KHTML, like Gecko) Chrome/129.0.0.0 Safari/537.36" version="24.7.17">
  <diagram name="Page-1" id="zgbJtdMpGCTRFBwRbic5">
    <mxGraphModel dx="-4520" dy="-1443" grid="1" gridSize="10" guides="1" tooltips="1" connect="1" arrows="1" fold="1" page="1" pageScale="1" pageWidth="850" pageHeight="1100" math="0" shadow="0">
      <root>
        <mxCell id="0" />
        <mxCell id="1" parent="0" />
        <mxCell id="pK2yrHicKk5-gGtidhXw-1" value="" style="rounded=1;whiteSpace=wrap;html=1;arcSize=15;" vertex="1" parent="1">
          <mxGeometry x="6400" y="3280" width="1000" height="1890" as="geometry" />
        </mxCell>
        <mxCell id="pK2yrHicKk5-gGtidhXw-2" value="&lt;b&gt;&lt;i&gt;CarPart&lt;/i&gt;&lt;/b&gt;" style="html=1;whiteSpace=wrap;" vertex="1" parent="1">
          <mxGeometry x="6990" y="3883" width="110" height="50" as="geometry" />
        </mxCell>
        <mxCell id="pK2yrHicKk5-gGtidhXw-3" value="" style="endArrow=none;html=1;rounded=0;entryX=0.79;entryY=0.846;entryDx=0;entryDy=0;entryPerimeter=0;exitX=0.04;exitY=0.846;exitDx=0;exitDy=0;exitPerimeter=0;" edge="1" parent="1">
          <mxGeometry width="50" height="50" relative="1" as="geometry">
            <mxPoint x="6444" y="3359.08" as="sourcePoint" />
            <mxPoint x="7356" y="3359" as="targetPoint" />
          </mxGeometry>
        </mxCell>
        <mxCell id="pK2yrHicKk5-gGtidhXw-4" value="&lt;b&gt;ECar&lt;/b&gt;" style="html=1;whiteSpace=wrap;" vertex="1" parent="1">
          <mxGeometry x="6700" y="3883" width="110" height="50" as="geometry" />
        </mxCell>
        <mxCell id="pK2yrHicKk5-gGtidhXw-5" value="&lt;p style=&quot;margin:0px;margin-top:4px;text-align:center;&quot;&gt;&lt;/p&gt;&lt;div style=&quot;height:2px;&quot;&gt;&lt;/div&gt;&lt;div style=&quot;text-align: center;&quot;&gt;&lt;span style=&quot;background-color: initial;&quot;&gt;&lt;b&gt;&amp;nbsp;&lt;/b&gt;&lt;i style=&quot;&quot;&gt;&lt;b&gt;Product:&lt;/b&gt;IP Governance&lt;/i&gt;&lt;/span&gt;&lt;/div&gt;&lt;hr size=&quot;1&quot; style=&quot;border-style:solid;&quot;&gt;&lt;div style=&quot;height:2px;&quot;&gt;&lt;div style=&quot;height: 2px;&quot;&gt;&amp;nbsp;maker: String&lt;/div&gt;&lt;div style=&quot;height: 2px;&quot;&gt;&lt;br&gt;&lt;/div&gt;&lt;div style=&quot;height: 2px;&quot;&gt;&lt;br&gt;&lt;/div&gt;&lt;div style=&quot;height: 2px;&quot;&gt;&lt;br&gt;&lt;/div&gt;&lt;div style=&quot;height: 2px;&quot;&gt;&lt;br&gt;&lt;/div&gt;&lt;div style=&quot;height: 2px;&quot;&gt;&amp;nbsp;&lt;/div&gt;&lt;div style=&quot;height: 2px;&quot;&gt;&lt;br&gt;&lt;/div&gt;&lt;div style=&quot;height: 2px;&quot;&gt;&lt;br&gt;&lt;/div&gt;&lt;div style=&quot;height: 2px;&quot;&gt;&amp;nbsp;protocol: String&lt;br&gt;&lt;/div&gt;&lt;div style=&quot;height: 2px;&quot;&gt;&lt;br&gt;&lt;/div&gt;&lt;div style=&quot;height: 2px;&quot;&gt;&lt;br&gt;&lt;/div&gt;&lt;div style=&quot;height: 2px;&quot;&gt;&lt;br&gt;&lt;/div&gt;&lt;div style=&quot;height: 2px;&quot;&gt;&lt;br&gt;&lt;/div&gt;&lt;div style=&quot;height: 2px;&quot;&gt;&lt;br&gt;&lt;/div&gt;&lt;div style=&quot;height: 2px;&quot;&gt;&lt;br&gt;&lt;/div&gt;&lt;div style=&quot;height: 2px;&quot;&gt;&lt;br&gt;&lt;/div&gt;&lt;/div&gt;" style="verticalAlign=top;align=left;overflow=fill;html=1;whiteSpace=wrap;" vertex="1" parent="1">
          <mxGeometry x="6830" y="3730" width="140" height="72" as="geometry" />
        </mxCell>
        <mxCell id="pK2yrHicKk5-gGtidhXw-6" value="" style="endArrow=block;endSize=16;endFill=0;html=1;rounded=0;entryX=0.5;entryY=1;entryDx=0;entryDy=0;exitX=0.5;exitY=0;exitDx=0;exitDy=0;" edge="1" parent="1" source="pK2yrHicKk5-gGtidhXw-4" target="pK2yrHicKk5-gGtidhXw-5">
          <mxGeometry width="160" relative="1" as="geometry">
            <mxPoint x="6700" y="3934.17" as="sourcePoint" />
            <mxPoint x="6860" y="3934.17" as="targetPoint" />
            <Array as="points">
              <mxPoint x="6755" y="3840" />
              <mxPoint x="6900" y="3840" />
            </Array>
          </mxGeometry>
        </mxCell>
        <mxCell id="pK2yrHicKk5-gGtidhXw-7" value="" style="endArrow=block;endSize=16;endFill=0;html=1;rounded=0;exitX=0.5;exitY=0;exitDx=0;exitDy=0;entryX=0.5;entryY=1;entryDx=0;entryDy=0;" edge="1" parent="1" source="pK2yrHicKk5-gGtidhXw-2" target="pK2yrHicKk5-gGtidhXw-5">
          <mxGeometry width="160" relative="1" as="geometry">
            <mxPoint x="6880" y="4054" as="sourcePoint" />
            <mxPoint x="7080" y="3921.83" as="targetPoint" />
            <Array as="points">
              <mxPoint x="7045" y="3840" />
              <mxPoint x="6900" y="3840" />
            </Array>
          </mxGeometry>
        </mxCell>
        <mxCell id="pK2yrHicKk5-gGtidhXw-8" value="&lt;p style=&quot;margin:0px;margin-top:4px;text-align:center;&quot;&gt;&lt;/p&gt;&lt;div style=&quot;height:2px;&quot;&gt;&lt;/div&gt;&lt;span style=&quot;font-weight: 700;&quot;&gt;&lt;div style=&quot;text-align: center;&quot;&gt;&lt;span style=&quot;background-color: initial;&quot;&gt;&lt;i&gt;&amp;nbsp;Power Using Part&lt;/i&gt;&lt;/span&gt;&lt;/div&gt;&lt;/span&gt;&lt;hr size=&quot;1&quot; style=&quot;border-style:solid;&quot;&gt;&lt;div style=&quot;height:2px;&quot;&gt;&lt;div style=&quot;height: 2px;&quot;&gt;&lt;br&gt;&lt;/div&gt;&lt;div style=&quot;height: 2px;&quot;&gt;&lt;br&gt;&lt;/div&gt;&lt;div style=&quot;height: 2px;&quot;&gt;&lt;br&gt;&lt;/div&gt;&lt;div style=&quot;height: 2px;&quot;&gt;&lt;br&gt;&lt;/div&gt;&lt;div style=&quot;height: 2px;&quot;&gt;&lt;div style=&quot;height: 2px;&quot;&gt;&lt;span style=&quot;background-color: initial;&quot;&gt;&amp;nbsp;maxUsedPower: Float&lt;/span&gt;&lt;/div&gt;&lt;/div&gt;&lt;/div&gt;" style="verticalAlign=top;align=left;overflow=fill;html=1;whiteSpace=wrap;" vertex="1" parent="1">
          <mxGeometry x="6620" y="4025" width="140" height="72" as="geometry" />
        </mxCell>
        <mxCell id="pK2yrHicKk5-gGtidhXw-9" value="&lt;p style=&quot;margin:0px;margin-top:4px;text-align:center;&quot;&gt;&lt;/p&gt;&lt;div style=&quot;height:2px;&quot;&gt;&lt;/div&gt;&lt;span style=&quot;font-weight: 700;&quot;&gt;&lt;div style=&quot;text-align: center;&quot;&gt;&lt;span style=&quot;background-color: initial;&quot;&gt;&lt;i&gt;&amp;nbsp;Power Supplying Part&lt;/i&gt;&lt;/span&gt;&lt;/div&gt;&lt;/span&gt;&lt;hr size=&quot;1&quot; style=&quot;border-style:solid;&quot;&gt;&lt;div style=&quot;height:2px;&quot;&gt;&lt;div style=&quot;height: 2px;&quot;&gt;&lt;br&gt;&lt;/div&gt;&lt;div style=&quot;height: 2px;&quot;&gt;&lt;br&gt;&lt;/div&gt;&lt;div style=&quot;height: 2px;&quot;&gt;&lt;div style=&quot;height: 2px;&quot;&gt;&amp;nbsp;&lt;/div&gt;&lt;div style=&quot;height: 2px;&quot;&gt;&lt;br&gt;&lt;/div&gt;&amp;nbsp;safetyLevel: Enum&lt;div style=&quot;height: 2px;&quot;&gt;&lt;div style=&quot;height: 2px;&quot;&gt;&lt;div style=&quot;height: 2px;&quot;&gt;&amp;nbsp;&lt;/div&gt;&lt;div style=&quot;height: 2px;&quot;&gt;&lt;br&gt;&lt;/div&gt;&amp;nbsp;maxSuppliedPower: Float&lt;/div&gt;&lt;div style=&quot;height: 2px;&quot;&gt;&lt;br&gt;&lt;/div&gt;&lt;div style=&quot;height: 2px;&quot;&gt;&lt;br&gt;&lt;/div&gt;&lt;div style=&quot;height: 2px;&quot;&gt;&lt;br&gt;&lt;/div&gt;&lt;div style=&quot;height: 2px;&quot;&gt;&lt;br&gt;&lt;/div&gt;&lt;div style=&quot;height: 2px;&quot;&gt;&lt;br&gt;&lt;/div&gt;&lt;div style=&quot;height: 2px;&quot;&gt;&lt;br&gt;&lt;/div&gt;&lt;div style=&quot;height: 2px;&quot;&gt;&lt;br&gt;&lt;/div&gt;&lt;div style=&quot;height: 2px;&quot;&gt;&lt;br&gt;&lt;/div&gt;&lt;div style=&quot;height: 2px;&quot;&gt;&lt;br&gt;&lt;/div&gt;&lt;div style=&quot;height: 2px;&quot;&gt;&lt;br&gt;&lt;/div&gt;&lt;div style=&quot;height: 2px;&quot;&gt;&amp;nbsp;rawMaterial: String&lt;/div&gt;&lt;/div&gt;&lt;/div&gt;&lt;/div&gt;" style="verticalAlign=top;align=left;overflow=fill;html=1;whiteSpace=wrap;" vertex="1" parent="1">
          <mxGeometry x="7020" y="4019" width="160" height="101" as="geometry" />
        </mxCell>
        <mxCell id="pK2yrHicKk5-gGtidhXw-10" value="" style="endArrow=block;endSize=16;endFill=0;html=1;rounded=0;entryX=0.5;entryY=1;entryDx=0;entryDy=0;exitX=0.5;exitY=0;exitDx=0;exitDy=0;" edge="1" parent="1" source="pK2yrHicKk5-gGtidhXw-8" target="pK2yrHicKk5-gGtidhXw-2">
          <mxGeometry width="160" relative="1" as="geometry">
            <mxPoint x="6450" y="3920" as="sourcePoint" />
            <mxPoint x="6610" y="3920" as="targetPoint" />
            <Array as="points">
              <mxPoint x="6690" y="3970" />
              <mxPoint x="7045" y="3970" />
            </Array>
          </mxGeometry>
        </mxCell>
        <mxCell id="pK2yrHicKk5-gGtidhXw-11" value="" style="endArrow=block;endSize=16;endFill=0;html=1;rounded=0;entryX=0.5;entryY=1;entryDx=0;entryDy=0;exitX=0.5;exitY=0;exitDx=0;exitDy=0;" edge="1" parent="1" source="pK2yrHicKk5-gGtidhXw-9" target="pK2yrHicKk5-gGtidhXw-2">
          <mxGeometry width="160" relative="1" as="geometry">
            <mxPoint x="6450" y="3920" as="sourcePoint" />
            <mxPoint x="6610" y="3920" as="targetPoint" />
            <Array as="points">
              <mxPoint x="7100" y="3970" />
              <mxPoint x="7045" y="3970" />
            </Array>
          </mxGeometry>
        </mxCell>
        <mxCell id="pK2yrHicKk5-gGtidhXw-12" value="" style="endArrow=diamondThin;endFill=1;endSize=24;html=1;rounded=0;entryX=1;entryY=0.5;entryDx=0;entryDy=0;exitX=0;exitY=0.5;exitDx=0;exitDy=0;" edge="1" parent="1" source="pK2yrHicKk5-gGtidhXw-2" target="pK2yrHicKk5-gGtidhXw-4">
          <mxGeometry width="160" relative="1" as="geometry">
            <mxPoint x="6450" y="3920" as="sourcePoint" />
            <mxPoint x="6610" y="3920" as="targetPoint" />
          </mxGeometry>
        </mxCell>
        <mxCell id="pK2yrHicKk5-gGtidhXw-13" value="&lt;font style=&quot;font-size: 15px;&quot;&gt;*&lt;/font&gt;" style="edgeLabel;html=1;align=center;verticalAlign=middle;resizable=0;points=[];" connectable="0" vertex="1" parent="pK2yrHicKk5-gGtidhXw-12">
          <mxGeometry x="-0.8074" relative="1" as="geometry">
            <mxPoint y="-12" as="offset" />
          </mxGeometry>
        </mxCell>
        <mxCell id="pK2yrHicKk5-gGtidhXw-14" value="" style="endArrow=diamondThin;endFill=1;endSize=24;html=1;rounded=0;entryX=1;entryY=0.5;entryDx=0;entryDy=0;exitX=0;exitY=0.5;exitDx=0;exitDy=0;" edge="1" parent="1" source="pK2yrHicKk5-gGtidhXw-21" target="pK2yrHicKk5-gGtidhXw-22">
          <mxGeometry width="160" relative="1" as="geometry">
            <mxPoint x="7230" y="4234" as="sourcePoint" />
            <mxPoint x="7130" y="4234" as="targetPoint" />
          </mxGeometry>
        </mxCell>
        <mxCell id="pK2yrHicKk5-gGtidhXw-15" value="*" style="edgeLabel;html=1;align=center;verticalAlign=middle;resizable=0;points=[];fontSize=18;" connectable="0" vertex="1" parent="pK2yrHicKk5-gGtidhXw-14">
          <mxGeometry x="-0.7948" y="1" relative="1" as="geometry">
            <mxPoint y="-15" as="offset" />
          </mxGeometry>
        </mxCell>
        <mxCell id="pK2yrHicKk5-gGtidhXw-16" value="" style="endArrow=block;endSize=16;endFill=0;html=1;rounded=0;entryX=0.5;entryY=1;entryDx=0;entryDy=0;exitX=0.5;exitY=0;exitDx=0;exitDy=0;" edge="1" parent="1" source="pK2yrHicKk5-gGtidhXw-23" target="pK2yrHicKk5-gGtidhXw-8">
          <mxGeometry width="160" relative="1" as="geometry">
            <mxPoint x="6500" y="4198" as="sourcePoint" />
            <mxPoint x="6610" y="4090" as="targetPoint" />
            <Array as="points">
              <mxPoint x="6570" y="4150" />
              <mxPoint x="6690" y="4150" />
            </Array>
          </mxGeometry>
        </mxCell>
        <mxCell id="pK2yrHicKk5-gGtidhXw-17" value="" style="endArrow=block;endSize=16;endFill=0;html=1;rounded=0;entryX=0.5;entryY=1;entryDx=0;entryDy=0;exitX=0.5;exitY=0;exitDx=0;exitDy=0;" edge="1" parent="1" source="pK2yrHicKk5-gGtidhXw-24" target="pK2yrHicKk5-gGtidhXw-8">
          <mxGeometry width="160" relative="1" as="geometry">
            <mxPoint x="6860" y="4198" as="sourcePoint" />
            <mxPoint x="6610" y="4090" as="targetPoint" />
            <Array as="points">
              <mxPoint x="6800" y="4150" />
              <mxPoint x="6690" y="4150" />
            </Array>
          </mxGeometry>
        </mxCell>
        <mxCell id="pK2yrHicKk5-gGtidhXw-18" value="" style="endArrow=block;endSize=16;endFill=0;html=1;rounded=0;entryX=0.5;entryY=1;entryDx=0;entryDy=0;exitX=0.5;exitY=0;exitDx=0;exitDy=0;" edge="1" parent="1" source="pK2yrHicKk5-gGtidhXw-22" target="pK2yrHicKk5-gGtidhXw-9">
          <mxGeometry width="160" relative="1" as="geometry">
            <mxPoint x="7060" y="4198" as="sourcePoint" />
            <mxPoint x="6610" y="4090" as="targetPoint" />
            <Array as="points">
              <mxPoint x="6985" y="4170" />
              <mxPoint x="7100" y="4170" />
            </Array>
          </mxGeometry>
        </mxCell>
        <mxCell id="pK2yrHicKk5-gGtidhXw-19" value="" style="endArrow=block;endSize=16;endFill=0;html=1;rounded=0;entryX=0.5;entryY=1;entryDx=0;entryDy=0;exitX=0.5;exitY=0;exitDx=0;exitDy=0;" edge="1" parent="1" source="pK2yrHicKk5-gGtidhXw-21" target="pK2yrHicKk5-gGtidhXw-9">
          <mxGeometry width="160" relative="1" as="geometry">
            <mxPoint x="7300" y="4198" as="sourcePoint" />
            <mxPoint x="6610" y="4090" as="targetPoint" />
            <Array as="points">
              <mxPoint x="7215" y="4170" />
              <mxPoint x="7100" y="4170" />
            </Array>
          </mxGeometry>
        </mxCell>
        <mxCell id="pK2yrHicKk5-gGtidhXw-20" value="" style="endArrow=none;html=1;rounded=0;entryX=0.79;entryY=0.846;entryDx=0;entryDy=0;entryPerimeter=0;exitX=0.04;exitY=0.846;exitDx=0;exitDy=0;exitPerimeter=0;" edge="1" parent="1">
          <mxGeometry width="50" height="50" relative="1" as="geometry">
            <mxPoint x="6445" y="4319.08" as="sourcePoint" />
            <mxPoint x="7357" y="4319" as="targetPoint" />
          </mxGeometry>
        </mxCell>
        <mxCell id="pK2yrHicKk5-gGtidhXw-21" value="&lt;span style=&quot;font-weight: 700; background-color: initial;&quot;&gt;Battery&lt;/span&gt;" style="html=1;whiteSpace=wrap;" vertex="1" parent="1">
          <mxGeometry x="7160" y="4208" width="110" height="50" as="geometry" />
        </mxCell>
        <mxCell id="pK2yrHicKk5-gGtidhXw-22" value="&lt;span style=&quot;font-weight: 700; background-color: initial;&quot;&gt;Battery Pack&lt;/span&gt;" style="html=1;whiteSpace=wrap;" vertex="1" parent="1">
          <mxGeometry x="6930" y="4208" width="110" height="50" as="geometry" />
        </mxCell>
        <mxCell id="pK2yrHicKk5-gGtidhXw-23" value="&lt;span style=&quot;font-weight: 700; background-color: initial;&quot;&gt;&amp;nbsp;Engine&lt;/span&gt;" style="html=1;whiteSpace=wrap;" vertex="1" parent="1">
          <mxGeometry x="6515" y="4208" width="110" height="50" as="geometry" />
        </mxCell>
        <mxCell id="pK2yrHicKk5-gGtidhXw-24" value="&lt;span style=&quot;font-weight: 700; background-color: initial;&quot;&gt;&amp;nbsp;Multi-Media&lt;/span&gt;" style="html=1;whiteSpace=wrap;" vertex="1" parent="1">
          <mxGeometry x="6745" y="4209" width="110" height="50" as="geometry" />
        </mxCell>
        <mxCell id="pK2yrHicKk5-gGtidhXw-25" value="Monolithic SUM" style="text;html=1;align=center;verticalAlign=middle;whiteSpace=wrap;rounded=0;fontStyle=1;fontSize=23;" vertex="1" parent="1">
          <mxGeometry x="6835" y="3300" width="130" height="46" as="geometry" />
        </mxCell>
        <mxCell id="pK2yrHicKk5-gGtidhXw-26" value="&lt;p style=&quot;margin:0px;margin-top:4px;text-align:center;&quot;&gt;&lt;/p&gt;&lt;div style=&quot;height:2px;&quot;&gt;&lt;/div&gt;&lt;div style=&quot;text-align: center;&quot;&gt;&lt;span style=&quot;font-weight: 700; background-color: initial;&quot;&gt;&amp;nbsp;BMW4er&lt;/span&gt;&lt;span style=&quot;background-color: initial;&quot;&gt;&lt;b&gt;:&lt;/b&gt;ECar&lt;/span&gt;&lt;/div&gt;&lt;hr size=&quot;1&quot; style=&quot;border-style:solid;&quot;&gt;&lt;div style=&quot;height:2px;&quot;&gt;&lt;div style=&quot;height: 2px;&quot;&gt;&amp;nbsp;maker: BMW&lt;/div&gt;&lt;div style=&quot;height: 2px;&quot;&gt;&lt;br&gt;&lt;/div&gt;&lt;div style=&quot;height: 2px;&quot;&gt;&lt;br&gt;&lt;/div&gt;&lt;div style=&quot;height: 2px;&quot;&gt;&lt;br&gt;&lt;/div&gt;&lt;div style=&quot;height: 2px;&quot;&gt;&lt;br&gt;&lt;/div&gt;&lt;div style=&quot;height: 2px;&quot;&gt;&lt;br&gt;&lt;/div&gt;&lt;div style=&quot;height: 2px;&quot;&gt;&lt;br&gt;&lt;/div&gt;&lt;div style=&quot;height: 2px;&quot;&gt;&lt;br&gt;&lt;/div&gt;&lt;div style=&quot;height: 2px;&quot;&gt;&lt;br&gt;&lt;/div&gt;&lt;div style=&quot;height: 2px;&quot;&gt;&amp;nbsp;protocol: EMS&lt;br&gt;&lt;/div&gt;&lt;div style=&quot;height: 2px;&quot;&gt;&lt;br&gt;&lt;/div&gt;&lt;div style=&quot;height: 2px;&quot;&gt;&lt;br&gt;&lt;/div&gt;&lt;div style=&quot;height: 2px;&quot;&gt;&lt;br&gt;&lt;/div&gt;&lt;div style=&quot;height: 2px;&quot;&gt;&lt;br&gt;&lt;/div&gt;&lt;div style=&quot;height: 2px;&quot;&gt;&lt;br&gt;&lt;/div&gt;&lt;div style=&quot;height: 2px;&quot;&gt;&lt;br&gt;&lt;/div&gt;&lt;div style=&quot;height: 2px;&quot;&gt;&lt;br&gt;&lt;/div&gt;&lt;div style=&quot;height: 2px;&quot;&gt;&lt;br&gt;&lt;/div&gt;&lt;div style=&quot;height: 2px;&quot;&gt;&amp;nbsp;client: senior_engineer&lt;br&gt;&lt;/div&gt;&lt;div style=&quot;height: 2px;&quot;&gt;&lt;br&gt;&lt;/div&gt;&lt;div style=&quot;height: 2px;&quot;&gt;&lt;br&gt;&lt;/div&gt;&lt;div style=&quot;height: 2px;&quot;&gt;&lt;br&gt;&lt;/div&gt;&lt;div style=&quot;height: 2px;&quot;&gt;&lt;br&gt;&lt;/div&gt;&lt;div style=&quot;height: 2px;&quot;&gt;&amp;nbsp;&lt;/div&gt;&lt;/div&gt;" style="verticalAlign=top;align=left;overflow=fill;html=1;whiteSpace=wrap;" vertex="1" parent="1">
          <mxGeometry x="6670" y="4511.5" width="180" height="88.5" as="geometry" />
        </mxCell>
        <mxCell id="pK2yrHicKk5-gGtidhXw-27" value="&lt;p style=&quot;margin:0px;margin-top:4px;text-align:center;&quot;&gt;&lt;/p&gt;&lt;div style=&quot;height:2px;&quot;&gt;&lt;/div&gt;&lt;div style=&quot;text-align: center;&quot;&gt;&lt;span style=&quot;font-weight: 700; background-color: initial;&quot;&gt;&amp;nbsp;&lt;/span&gt;&lt;span style=&quot;background-color: initial; text-align: left;&quot;&gt;&lt;b&gt;eDrive50&lt;/b&gt;&lt;/span&gt;&lt;span style=&quot;background-color: initial;&quot;&gt;&lt;b&gt;:&lt;/b&gt;Engine&lt;/span&gt;&lt;/div&gt;&lt;hr size=&quot;1&quot; style=&quot;border-style:solid;&quot;&gt;&lt;div style=&quot;height:2px;&quot;&gt;&lt;div style=&quot;height: 2px;&quot;&gt;&amp;nbsp;&lt;span style=&quot;background-color: initial;&quot;&gt;maker: BMW&lt;/span&gt;&lt;/div&gt;&lt;div style=&quot;height: 2px;&quot;&gt;&lt;br&gt;&lt;/div&gt;&lt;div style=&quot;height: 2px;&quot;&gt;&lt;br&gt;&lt;/div&gt;&lt;div style=&quot;height: 2px;&quot;&gt;&lt;br&gt;&lt;/div&gt;&lt;div style=&quot;height: 2px;&quot;&gt;&lt;br&gt;&lt;/div&gt;&lt;div style=&quot;height: 2px;&quot;&gt;&lt;br&gt;&lt;/div&gt;&lt;div style=&quot;height: 2px;&quot;&gt;&lt;br&gt;&lt;/div&gt;&lt;div style=&quot;height: 2px;&quot;&gt;&lt;br&gt;&lt;/div&gt;&lt;div style=&quot;height: 2px;&quot;&gt;&lt;br&gt;&lt;/div&gt;&lt;div style=&quot;height: 2px;&quot;&gt;&lt;div style=&quot;height: 2px;&quot;&gt;&lt;span style=&quot;background-color: initial;&quot;&gt;&amp;nbsp;maxUsedPower: 60&lt;/span&gt;&lt;/div&gt;&lt;div style=&quot;height: 2px;&quot;&gt;&lt;span style=&quot;background-color: initial;&quot;&gt;&lt;br&gt;&lt;/span&gt;&lt;/div&gt;&lt;div style=&quot;height: 2px;&quot;&gt;&lt;span style=&quot;background-color: initial;&quot;&gt;&lt;br&gt;&lt;/span&gt;&lt;/div&gt;&lt;div style=&quot;height: 2px;&quot;&gt;&lt;span style=&quot;background-color: initial;&quot;&gt;&lt;br&gt;&lt;/span&gt;&lt;/div&gt;&lt;div style=&quot;height: 2px;&quot;&gt;&lt;span style=&quot;background-color: initial;&quot;&gt;&lt;br&gt;&lt;/span&gt;&lt;/div&gt;&lt;div style=&quot;height: 2px;&quot;&gt;&lt;span style=&quot;background-color: initial;&quot;&gt;&lt;br&gt;&lt;/span&gt;&lt;/div&gt;&lt;div style=&quot;height: 2px;&quot;&gt;&lt;span style=&quot;background-color: initial;&quot;&gt;&lt;br&gt;&lt;/span&gt;&lt;/div&gt;&lt;div style=&quot;height: 2px;&quot;&gt;&lt;span style=&quot;background-color: initial;&quot;&gt;&lt;br&gt;&lt;/span&gt;&lt;/div&gt;&lt;div style=&quot;height: 2px;&quot;&gt;&lt;span style=&quot;background-color: initial;&quot;&gt;&amp;nbsp;protocol:&amp;nbsp;&lt;/span&gt;&lt;span style=&quot;background-color: initial;&quot;&gt;EMS&lt;/span&gt;&lt;/div&gt;&lt;div style=&quot;height: 2px;&quot;&gt;&lt;span style=&quot;background-color: initial;&quot;&gt;&lt;br&gt;&lt;/span&gt;&lt;/div&gt;&lt;div style=&quot;height: 2px;&quot;&gt;&lt;span style=&quot;background-color: initial;&quot;&gt;&lt;br&gt;&lt;/span&gt;&lt;/div&gt;&lt;div style=&quot;height: 2px;&quot;&gt;&lt;br&gt;&lt;/div&gt;&lt;div style=&quot;height: 2px;&quot;&gt;&lt;br&gt;&lt;/div&gt;&lt;div style=&quot;height: 2px;&quot;&gt;&lt;br&gt;&lt;/div&gt;&lt;div style=&quot;height: 2px;&quot;&gt;&lt;br&gt;&lt;/div&gt;&lt;div style=&quot;height: 2px;&quot;&gt;&lt;br&gt;&lt;/div&gt;&lt;div style=&quot;height: 2px;&quot;&gt;&amp;nbsp;client: engine_architect&lt;br&gt;&lt;/div&gt;&lt;/div&gt;&lt;/div&gt;" style="verticalAlign=top;align=left;overflow=fill;html=1;whiteSpace=wrap;" vertex="1" parent="1">
          <mxGeometry x="6610" y="4350" width="140" height="101.5" as="geometry" />
        </mxCell>
        <mxCell id="pK2yrHicKk5-gGtidhXw-28" value="&lt;p style=&quot;margin:0px;margin-top:4px;text-align:center;&quot;&gt;&lt;/p&gt;&lt;div style=&quot;height:2px;&quot;&gt;&lt;/div&gt;&lt;div style=&quot;text-align: center;&quot;&gt;&lt;span style=&quot;font-weight: 700; background-color: initial;&quot;&gt;&amp;nbsp;&lt;/span&gt;&lt;span style=&quot;font-weight: 700;&quot;&gt;E90&lt;/span&gt;&lt;span style=&quot;background-color: initial;&quot;&gt;&lt;b&gt;:&lt;/b&gt;EMulti-Media&lt;/span&gt;&lt;/div&gt;&lt;hr size=&quot;1&quot; style=&quot;border-style:solid;&quot;&gt;&lt;div style=&quot;height:2px;&quot;&gt;&lt;div style=&quot;height: 2px;&quot;&gt;&amp;nbsp;&lt;span style=&quot;background-color: initial;&quot;&gt;maker: BMW&lt;/span&gt;&lt;/div&gt;&lt;div style=&quot;height: 2px;&quot;&gt;&lt;br&gt;&lt;/div&gt;&lt;div style=&quot;height: 2px;&quot;&gt;&lt;br&gt;&lt;/div&gt;&lt;div style=&quot;height: 2px;&quot;&gt;&lt;br&gt;&lt;/div&gt;&lt;div style=&quot;height: 2px;&quot;&gt;&lt;br&gt;&lt;/div&gt;&lt;div style=&quot;height: 2px;&quot;&gt;&lt;br&gt;&lt;/div&gt;&lt;div style=&quot;height: 2px;&quot;&gt;&lt;br&gt;&lt;/div&gt;&lt;div style=&quot;height: 2px;&quot;&gt;&lt;br&gt;&lt;/div&gt;&lt;div style=&quot;height: 2px;&quot;&gt;&lt;br&gt;&lt;/div&gt;&lt;div style=&quot;height: 2px;&quot;&gt;&lt;div style=&quot;height: 2px;&quot;&gt;&lt;span style=&quot;background-color: initial;&quot;&gt;&amp;nbsp;maxUsedPower: 10&lt;/span&gt;&lt;/div&gt;&lt;div style=&quot;height: 2px;&quot;&gt;&lt;span style=&quot;background-color: initial;&quot;&gt;&lt;br&gt;&lt;/span&gt;&lt;/div&gt;&lt;div style=&quot;height: 2px;&quot;&gt;&lt;span style=&quot;background-color: initial;&quot;&gt;&lt;br&gt;&lt;/span&gt;&lt;/div&gt;&lt;div style=&quot;height: 2px;&quot;&gt;&lt;span style=&quot;background-color: initial;&quot;&gt;&lt;br&gt;&lt;/span&gt;&lt;/div&gt;&lt;div style=&quot;height: 2px;&quot;&gt;&lt;span style=&quot;background-color: initial;&quot;&gt;&lt;br&gt;&lt;/span&gt;&lt;/div&gt;&lt;div style=&quot;height: 2px;&quot;&gt;&lt;span style=&quot;background-color: initial;&quot;&gt;&lt;br&gt;&lt;/span&gt;&lt;/div&gt;&lt;div style=&quot;height: 2px;&quot;&gt;&lt;span style=&quot;background-color: initial;&quot;&gt;&lt;br&gt;&lt;/span&gt;&lt;/div&gt;&lt;div style=&quot;height: 2px;&quot;&gt;&lt;span style=&quot;background-color: initial;&quot;&gt;&lt;br&gt;&lt;/span&gt;&lt;/div&gt;&lt;div style=&quot;height: 2px;&quot;&gt;&lt;span style=&quot;background-color: initial;&quot;&gt;&lt;br&gt;&lt;/span&gt;&lt;/div&gt;&lt;div style=&quot;height: 2px;&quot;&gt;&lt;span style=&quot;background-color: initial;&quot;&gt;&amp;nbsp;protocol:&amp;nbsp;&lt;/span&gt;&lt;span style=&quot;background-color: initial;&quot;&gt;LIN&lt;/span&gt;&lt;br&gt;&lt;/div&gt;&lt;div style=&quot;height: 2px;&quot;&gt;&lt;span style=&quot;background-color: initial;&quot;&gt;&lt;br&gt;&lt;/span&gt;&lt;/div&gt;&lt;div style=&quot;height: 2px;&quot;&gt;&lt;span style=&quot;background-color: initial;&quot;&gt;&lt;br&gt;&lt;/span&gt;&lt;/div&gt;&lt;div style=&quot;height: 2px;&quot;&gt;&lt;span style=&quot;background-color: initial;&quot;&gt;&lt;br&gt;&lt;/span&gt;&lt;/div&gt;&lt;div style=&quot;height: 2px;&quot;&gt;&lt;span style=&quot;background-color: initial;&quot;&gt;&lt;br&gt;&lt;/span&gt;&lt;/div&gt;&lt;div style=&quot;height: 2px;&quot;&gt;&lt;span style=&quot;background-color: initial;&quot;&gt;&lt;br&gt;&lt;/span&gt;&lt;/div&gt;&lt;div style=&quot;height: 2px;&quot;&gt;&lt;span style=&quot;background-color: initial;&quot;&gt;&lt;br&gt;&lt;/span&gt;&lt;/div&gt;&lt;div style=&quot;height: 2px;&quot;&gt;&lt;span style=&quot;background-color: initial;&quot;&gt;&lt;br&gt;&lt;/span&gt;&lt;/div&gt;&lt;div style=&quot;height: 2px;&quot;&gt;&amp;nbsp;client: mm_architect&lt;span style=&quot;background-color: initial;&quot;&gt;&lt;br&gt;&lt;/span&gt;&lt;/div&gt;&lt;/div&gt;&lt;/div&gt;" style="verticalAlign=top;align=left;overflow=fill;html=1;whiteSpace=wrap;" vertex="1" parent="1">
          <mxGeometry x="6610" y="4661.5" width="140" height="98.5" as="geometry" />
        </mxCell>
        <mxCell id="pK2yrHicKk5-gGtidhXw-29" value="" style="endArrow=diamondThin;endFill=1;endSize=24;html=1;rounded=0;entryX=0.25;entryY=0;entryDx=0;entryDy=0;exitX=0.75;exitY=1;exitDx=0;exitDy=0;" edge="1" parent="1" source="pK2yrHicKk5-gGtidhXw-27" target="pK2yrHicKk5-gGtidhXw-26">
          <mxGeometry width="160" relative="1" as="geometry">
            <mxPoint x="6590" y="4566.5" as="sourcePoint" />
            <mxPoint x="6700" y="4566.5" as="targetPoint" />
          </mxGeometry>
        </mxCell>
        <mxCell id="pK2yrHicKk5-gGtidhXw-30" value="1" style="edgeLabel;html=1;align=center;verticalAlign=middle;resizable=0;points=[];" connectable="0" vertex="1" parent="pK2yrHicKk5-gGtidhXw-29">
          <mxGeometry x="-0.7333" y="1" relative="1" as="geometry">
            <mxPoint x="5" as="offset" />
          </mxGeometry>
        </mxCell>
        <mxCell id="pK2yrHicKk5-gGtidhXw-31" value="" style="endArrow=diamondThin;endFill=1;endSize=24;html=1;rounded=0;entryX=0.25;entryY=1;entryDx=0;entryDy=0;exitX=0.75;exitY=0;exitDx=0;exitDy=0;" edge="1" parent="1" source="pK2yrHicKk5-gGtidhXw-28" target="pK2yrHicKk5-gGtidhXw-26">
          <mxGeometry width="160" relative="1" as="geometry">
            <mxPoint x="6770" y="4440.5" as="sourcePoint" />
            <mxPoint x="6770" y="4530.5" as="targetPoint" />
          </mxGeometry>
        </mxCell>
        <mxCell id="pK2yrHicKk5-gGtidhXw-32" value="1" style="edgeLabel;html=1;align=center;verticalAlign=middle;resizable=0;points=[];" connectable="0" vertex="1" parent="pK2yrHicKk5-gGtidhXw-31">
          <mxGeometry x="-0.7303" y="2" relative="1" as="geometry">
            <mxPoint x="8" as="offset" />
          </mxGeometry>
        </mxCell>
        <mxCell id="pK2yrHicKk5-gGtidhXw-33" value="" style="endArrow=diamondThin;endFill=1;endSize=24;html=1;rounded=0;entryX=1;entryY=0.5;entryDx=0;entryDy=0;exitX=0;exitY=0.5;exitDx=0;exitDy=0;" edge="1" parent="1" source="pK2yrHicKk5-gGtidhXw-37" target="pK2yrHicKk5-gGtidhXw-26">
          <mxGeometry width="160" relative="1" as="geometry">
            <mxPoint x="6885" y="4556.25" as="sourcePoint" />
            <mxPoint x="6700" y="4602.5" as="targetPoint" />
          </mxGeometry>
        </mxCell>
        <mxCell id="pK2yrHicKk5-gGtidhXw-34" value="1" style="edgeLabel;html=1;align=center;verticalAlign=middle;resizable=0;points=[];" connectable="0" vertex="1" parent="pK2yrHicKk5-gGtidhXw-33">
          <mxGeometry x="-0.8453" y="-1" relative="1" as="geometry">
            <mxPoint y="-8" as="offset" />
          </mxGeometry>
        </mxCell>
        <mxCell id="pK2yrHicKk5-gGtidhXw-35" value="" style="edgeStyle=orthogonalEdgeStyle;rounded=0;orthogonalLoop=1;jettySize=auto;html=1;" edge="1" parent="1" source="pK2yrHicKk5-gGtidhXw-36" target="pK2yrHicKk5-gGtidhXw-37">
          <mxGeometry relative="1" as="geometry" />
        </mxCell>
        <mxCell id="pK2yrHicKk5-gGtidhXw-36" value="&lt;p style=&quot;margin:0px;margin-top:4px;text-align:center;&quot;&gt;&lt;/p&gt;&lt;div style=&quot;height:2px;&quot;&gt;&lt;/div&gt;&lt;div style=&quot;text-align: center;&quot;&gt;&lt;span style=&quot;font-weight: 700; background-color: initial;&quot;&gt;&amp;nbsp;&lt;/span&gt;&lt;span style=&quot;font-weight: 700;&quot;&gt;HV-AX48&lt;/span&gt;&lt;span style=&quot;background-color: initial;&quot;&gt;&lt;b&gt;:&lt;/b&gt;Battery&lt;/span&gt;&lt;/div&gt;&lt;hr size=&quot;1&quot; style=&quot;border-style:solid;&quot;&gt;&lt;div style=&quot;height:2px;&quot;&gt;&lt;div style=&quot;height: 2px;&quot;&gt;&amp;nbsp;&lt;span style=&quot;background-color: initial;&quot;&gt;maker: BOSCH&lt;/span&gt;&lt;/div&gt;&lt;div style=&quot;height: 2px;&quot;&gt;&lt;br&gt;&lt;/div&gt;&lt;div style=&quot;height: 2px;&quot;&gt;&lt;br&gt;&lt;/div&gt;&lt;div style=&quot;height: 2px;&quot;&gt;&lt;br&gt;&lt;/div&gt;&lt;div style=&quot;height: 2px;&quot;&gt;&lt;br&gt;&lt;/div&gt;&lt;div style=&quot;height: 2px;&quot;&gt;&lt;br&gt;&lt;/div&gt;&lt;div style=&quot;height: 2px;&quot;&gt;&lt;br&gt;&lt;/div&gt;&lt;div style=&quot;height: 2px;&quot;&gt;&lt;br&gt;&lt;/div&gt;&lt;div style=&quot;height: 2px;&quot;&gt;&lt;br&gt;&lt;/div&gt;&lt;div style=&quot;height: 2px;&quot;&gt;&lt;div style=&quot;height: 2px;&quot;&gt;&lt;span style=&quot;background-color: initial;&quot;&gt;&amp;nbsp;maxSuppliedPower: 48&lt;/span&gt;&lt;/div&gt;&lt;div style=&quot;height: 2px;&quot;&gt;&lt;span style=&quot;background-color: initial;&quot;&gt;&lt;br&gt;&lt;/span&gt;&lt;/div&gt;&lt;div style=&quot;height: 2px;&quot;&gt;&lt;span style=&quot;background-color: initial;&quot;&gt;&lt;br&gt;&lt;/span&gt;&lt;/div&gt;&lt;div style=&quot;height: 2px;&quot;&gt;&lt;span style=&quot;background-color: initial;&quot;&gt;&lt;br&gt;&lt;/span&gt;&lt;/div&gt;&lt;div style=&quot;height: 2px;&quot;&gt;&lt;span style=&quot;background-color: initial;&quot;&gt;&lt;br&gt;&lt;/span&gt;&lt;/div&gt;&lt;div style=&quot;height: 2px;&quot;&gt;&lt;span style=&quot;background-color: initial;&quot;&gt;&lt;br&gt;&lt;/span&gt;&lt;/div&gt;&lt;div style=&quot;height: 2px;&quot;&gt;&lt;span style=&quot;background-color: initial;&quot;&gt;&lt;br&gt;&lt;/span&gt;&lt;/div&gt;&lt;div style=&quot;height: 2px;&quot;&gt;&lt;span style=&quot;background-color: initial;&quot;&gt;&lt;br&gt;&lt;/span&gt;&lt;/div&gt;&lt;div style=&quot;height: 2px;&quot;&gt;&lt;span style=&quot;background-color: initial;&quot;&gt;&lt;br&gt;&lt;/span&gt;&lt;/div&gt;&lt;div style=&quot;height: 2px;&quot;&gt;&lt;div style=&quot;height: 2px;&quot;&gt;&amp;nbsp;client: electrical_engineer&lt;br&gt;&lt;/div&gt;&lt;div style=&quot;height: 2px;&quot;&gt;&lt;br&gt;&lt;/div&gt;&lt;/div&gt;&lt;/div&gt;&lt;/div&gt;" style="verticalAlign=top;align=left;overflow=fill;html=1;whiteSpace=wrap;" vertex="1" parent="1">
          <mxGeometry x="6960" y="4672" width="160" height="88" as="geometry" />
        </mxCell>
        <mxCell id="pK2yrHicKk5-gGtidhXw-37" value="&lt;p style=&quot;margin:0px;margin-top:4px;text-align:center;&quot;&gt;&lt;/p&gt;&lt;div style=&quot;height:2px;&quot;&gt;&lt;/div&gt;&lt;div style=&quot;text-align: center;&quot;&gt;&lt;span style=&quot;font-weight: 700; background-color: initial;&quot;&gt;&amp;nbsp;&lt;/span&gt;&lt;span style=&quot;font-weight: 700;&quot;&gt;BP-XLi-Sports&lt;/span&gt;&lt;span style=&quot;background-color: initial;&quot;&gt;&lt;b&gt;:&lt;/b&gt;Battery Pack&lt;/span&gt;&lt;/div&gt;&lt;hr size=&quot;1&quot; style=&quot;border-style:solid;&quot;&gt;&lt;div style=&quot;height:2px;&quot;&gt;&lt;div style=&quot;height: 2px;&quot;&gt;&amp;nbsp;maker: BOSCH&lt;/div&gt;&lt;div style=&quot;height: 2px;&quot;&gt;&lt;br&gt;&lt;/div&gt;&lt;div style=&quot;height: 2px;&quot;&gt;&lt;br&gt;&lt;/div&gt;&lt;div style=&quot;height: 2px;&quot;&gt;&lt;br&gt;&lt;/div&gt;&lt;div style=&quot;height: 2px;&quot;&gt;&lt;br&gt;&lt;/div&gt;&lt;div style=&quot;height: 2px;&quot;&gt;&lt;br&gt;&lt;/div&gt;&lt;div style=&quot;height: 2px;&quot;&gt;&lt;br&gt;&lt;/div&gt;&lt;div style=&quot;height: 2px;&quot;&gt;&lt;br&gt;&lt;/div&gt;&lt;div style=&quot;height: 2px;&quot;&gt;&lt;br&gt;&lt;/div&gt;&lt;div style=&quot;height: 2px;&quot;&gt;&amp;nbsp;safetyLevel: ASIL_C&lt;br&gt;&lt;/div&gt;&lt;div style=&quot;height: 2px;&quot;&gt;&lt;br&gt;&lt;/div&gt;&lt;div style=&quot;height: 2px;&quot;&gt;&lt;br&gt;&lt;/div&gt;&lt;div style=&quot;height: 2px;&quot;&gt;&lt;br&gt;&lt;/div&gt;&lt;div style=&quot;height: 2px;&quot;&gt;&lt;br&gt;&lt;/div&gt;&lt;div style=&quot;height: 2px;&quot;&gt;&lt;br&gt;&lt;/div&gt;&lt;div style=&quot;height: 2px;&quot;&gt;&lt;br&gt;&lt;/div&gt;&lt;div style=&quot;height: 2px;&quot;&gt;&lt;br&gt;&lt;/div&gt;&lt;div style=&quot;height: 2px;&quot;&gt;&lt;br&gt;&lt;/div&gt;&lt;div style=&quot;height: 2px;&quot;&gt;&amp;nbsp;maxSuppliedPower: 96&lt;br&gt;&lt;/div&gt;&lt;div style=&quot;height: 2px;&quot;&gt;&lt;br&gt;&lt;/div&gt;&lt;div style=&quot;height: 2px;&quot;&gt;&lt;br&gt;&lt;/div&gt;&lt;div style=&quot;height: 2px;&quot;&gt;&lt;br&gt;&lt;/div&gt;&lt;div style=&quot;height: 2px;&quot;&gt;&lt;br&gt;&lt;/div&gt;&lt;div style=&quot;height: 2px;&quot;&gt;&lt;br&gt;&lt;/div&gt;&lt;div style=&quot;height: 2px;&quot;&gt;&lt;br&gt;&lt;/div&gt;&lt;div style=&quot;height: 2px;&quot;&gt;&lt;br&gt;&lt;/div&gt;&lt;div style=&quot;height: 2px;&quot;&gt;&lt;br&gt;&lt;/div&gt;&lt;div style=&quot;height: 2px;&quot;&gt;&lt;span style=&quot;background-color: initial;&quot;&gt;&amp;nbsp;protocol:&amp;nbsp;&lt;/span&gt;&lt;span style=&quot;background-color: initial;&quot;&gt;BMS&lt;/span&gt;&lt;br&gt;&lt;/div&gt;&lt;div style=&quot;height: 2px;&quot;&gt;&lt;span style=&quot;background-color: initial;&quot;&gt;&lt;br&gt;&lt;/span&gt;&lt;/div&gt;&lt;div style=&quot;height: 2px;&quot;&gt;&lt;span style=&quot;background-color: initial;&quot;&gt;&lt;br&gt;&lt;/span&gt;&lt;/div&gt;&lt;div style=&quot;height: 2px;&quot;&gt;&lt;span style=&quot;background-color: initial;&quot;&gt;&lt;br&gt;&lt;/span&gt;&lt;/div&gt;&lt;div style=&quot;height: 2px;&quot;&gt;&lt;span style=&quot;background-color: initial;&quot;&gt;&lt;br&gt;&lt;/span&gt;&lt;/div&gt;&lt;div style=&quot;height: 2px;&quot;&gt;&lt;span style=&quot;background-color: initial;&quot;&gt;&lt;br&gt;&lt;/span&gt;&lt;/div&gt;&lt;div style=&quot;height: 2px;&quot;&gt;&lt;span style=&quot;background-color: initial;&quot;&gt;&lt;br&gt;&lt;/span&gt;&lt;/div&gt;&lt;div style=&quot;height: 2px;&quot;&gt;&lt;span style=&quot;background-color: initial;&quot;&gt;&lt;br&gt;&lt;/span&gt;&lt;/div&gt;&lt;div style=&quot;height: 2px;&quot;&gt;&lt;span style=&quot;background-color: initial;&quot;&gt;&lt;br&gt;&lt;/span&gt;&lt;/div&gt;&lt;div style=&quot;height: 2px;&quot;&gt;&amp;nbsp;&lt;span style=&quot;background-color: initial;&quot;&gt;rawMaterial:&amp;nbsp;&lt;/span&gt;&lt;span style=&quot;background-color: initial;&quot;&gt;Lithium&lt;/span&gt;&lt;/div&gt;&lt;div style=&quot;height: 2px;&quot;&gt;&lt;span style=&quot;background-color: initial;&quot;&gt;&lt;br&gt;&lt;/span&gt;&lt;/div&gt;&lt;div style=&quot;height: 2px;&quot;&gt;&lt;span style=&quot;background-color: initial;&quot;&gt;&lt;br&gt;&lt;/span&gt;&lt;/div&gt;&lt;div style=&quot;height: 2px;&quot;&gt;&lt;span style=&quot;background-color: initial;&quot;&gt;&lt;br&gt;&lt;/span&gt;&lt;/div&gt;&lt;div style=&quot;height: 2px;&quot;&gt;&lt;span style=&quot;background-color: initial;&quot;&gt;&lt;br&gt;&lt;/span&gt;&lt;/div&gt;&lt;div style=&quot;height: 2px;&quot;&gt;&lt;span style=&quot;background-color: initial;&quot;&gt;&lt;br&gt;&lt;/span&gt;&lt;/div&gt;&lt;div style=&quot;height: 2px;&quot;&gt;&lt;span style=&quot;background-color: initial;&quot;&gt;&lt;br&gt;&lt;/span&gt;&lt;/div&gt;&lt;div style=&quot;height: 2px;&quot;&gt;&lt;span style=&quot;background-color: initial;&quot;&gt;&lt;br&gt;&lt;/span&gt;&lt;/div&gt;&lt;div style=&quot;height: 2px;&quot;&gt;&lt;span style=&quot;background-color: initial;&quot;&gt;&lt;br&gt;&lt;/span&gt;&lt;/div&gt;&lt;div style=&quot;height: 2px;&quot;&gt;&lt;div style=&quot;height: 2px;&quot;&gt;&amp;nbsp;client: senior_engineer&lt;br&gt;&lt;/div&gt;&lt;div style=&quot;height: 2px;&quot;&gt;&lt;br&gt;&lt;/div&gt;&lt;/div&gt;&lt;/div&gt;" style="verticalAlign=top;align=left;overflow=fill;html=1;whiteSpace=wrap;" vertex="1" parent="1">
          <mxGeometry x="6930" y="4485" width="220" height="141" as="geometry" />
        </mxCell>
        <mxCell id="pK2yrHicKk5-gGtidhXw-38" value="" style="endArrow=diamondThin;endFill=1;endSize=24;html=1;rounded=0;entryX=0.5;entryY=1;entryDx=0;entryDy=0;exitX=0.5;exitY=0;exitDx=0;exitDy=0;" edge="1" parent="1" source="pK2yrHicKk5-gGtidhXw-36" target="pK2yrHicKk5-gGtidhXw-37">
          <mxGeometry width="160" relative="1" as="geometry">
            <mxPoint x="6719.5" y="4621" as="sourcePoint" />
            <mxPoint x="6719.5" y="4532" as="targetPoint" />
            <Array as="points" />
          </mxGeometry>
        </mxCell>
        <mxCell id="pK2yrHicKk5-gGtidhXw-39" value="2" style="edgeLabel;html=1;align=center;verticalAlign=middle;resizable=0;points=[];" connectable="0" vertex="1" parent="pK2yrHicKk5-gGtidhXw-38">
          <mxGeometry x="-0.697" y="1" relative="1" as="geometry">
            <mxPoint x="8" as="offset" />
          </mxGeometry>
        </mxCell>
        <mxCell id="pK2yrHicKk5-gGtidhXw-41" value="" style="endArrow=none;html=1;rounded=0;entryX=0.79;entryY=0.846;entryDx=0;entryDy=0;entryPerimeter=0;exitX=0.04;exitY=0.846;exitDx=0;exitDy=0;exitPerimeter=0;" edge="1" parent="1">
          <mxGeometry width="50" height="50" relative="1" as="geometry">
            <mxPoint x="6445" y="3679.08" as="sourcePoint" />
            <mxPoint x="7357" y="3679" as="targetPoint" />
          </mxGeometry>
        </mxCell>
        <mxCell id="pK2yrHicKk5-gGtidhXw-42" value="&lt;p style=&quot;margin:0px;margin-top:4px;text-align:center;&quot;&gt;&lt;/p&gt;&lt;div style=&quot;height:2px;&quot;&gt;&lt;/div&gt;&lt;span style=&quot;font-weight: 700;&quot;&gt;&lt;div style=&quot;text-align: center;&quot;&gt;&lt;span style=&quot;background-color: initial;&quot;&gt;&amp;nbsp;IP Governance&lt;/span&gt;&lt;/div&gt;&lt;/span&gt;&lt;hr size=&quot;1&quot; style=&quot;border-style:solid;&quot;&gt;&lt;div style=&quot;height:2px;&quot;&gt;&lt;div style=&quot;height: 2px;&quot;&gt;&lt;br&gt;&lt;/div&gt;&lt;div style=&quot;height: 2px;&quot;&gt;&lt;br&gt;&lt;/div&gt;&lt;div style=&quot;height: 2px;&quot;&gt;&lt;br&gt;&lt;/div&gt;&lt;div style=&quot;height: 2px;&quot;&gt;&amp;nbsp;client&lt;sup&gt;3&lt;/sup&gt;: String&lt;br&gt;&lt;/div&gt;&lt;div style=&quot;height: 2px;&quot;&gt;&lt;br&gt;&lt;/div&gt;&lt;div style=&quot;height: 2px;&quot;&gt;&lt;br&gt;&lt;/div&gt;&lt;div style=&quot;height: 2px;&quot;&gt;&lt;br&gt;&lt;/div&gt;&lt;div style=&quot;height: 2px;&quot;&gt;&lt;br&gt;&lt;/div&gt;&lt;div style=&quot;height: 2px;&quot;&gt;&lt;br&gt;&lt;/div&gt;&lt;div style=&quot;height: 2px;&quot;&gt;&lt;br&gt;&lt;/div&gt;&lt;div style=&quot;height: 2px;&quot;&gt;&lt;br&gt;&lt;/div&gt;&lt;/div&gt;" style="verticalAlign=top;align=left;overflow=fill;html=1;whiteSpace=wrap;" vertex="1" parent="1">
          <mxGeometry x="6800" y="3485" width="140" height="70" as="geometry" />
        </mxCell>
        <mxCell id="pK2yrHicKk5-gGtidhXw-44" value="&lt;p style=&quot;margin:0px;margin-top:4px;text-align:center;&quot;&gt;&lt;/p&gt;&lt;div style=&quot;height:2px;&quot;&gt;&lt;/div&gt;&lt;span style=&quot;font-weight: 700;&quot;&gt;&lt;div style=&quot;text-align: center;&quot;&gt;&lt;span style=&quot;background-color: initial;&quot;&gt;&amp;nbsp;Realm&lt;/span&gt;&lt;/div&gt;&lt;/span&gt;&lt;hr size=&quot;1&quot; style=&quot;border-style:solid;&quot;&gt;&lt;div style=&quot;height:2px;&quot;&gt;&lt;div style=&quot;height: 2px;&quot;&gt;&amp;nbsp;r&lt;span style=&quot;background-color: initial;&quot;&gt;ealm&lt;sup&gt;3&lt;/sup&gt;: String&lt;/span&gt;&lt;/div&gt;&lt;div style=&quot;height: 2px;&quot;&gt;&lt;span style=&quot;background-color: initial;&quot;&gt;&lt;br&gt;&lt;/span&gt;&lt;/div&gt;&lt;div style=&quot;height: 2px;&quot;&gt;&lt;span style=&quot;background-color: initial;&quot;&gt;&lt;br&gt;&lt;/span&gt;&lt;/div&gt;&lt;div style=&quot;height: 2px;&quot;&gt;&lt;span style=&quot;background-color: initial;&quot;&gt;&lt;br&gt;&lt;/span&gt;&lt;/div&gt;&lt;div style=&quot;height: 2px;&quot;&gt;&lt;span style=&quot;background-color: initial;&quot;&gt;&lt;br&gt;&lt;/span&gt;&lt;/div&gt;&lt;div style=&quot;height: 2px;&quot;&gt;&lt;span style=&quot;background-color: initial;&quot;&gt;&lt;br&gt;&lt;/span&gt;&lt;/div&gt;&lt;div style=&quot;height: 2px;&quot;&gt;&lt;span style=&quot;background-color: initial;&quot;&gt;&lt;br&gt;&lt;/span&gt;&lt;/div&gt;&lt;div style=&quot;height: 2px;&quot;&gt;&lt;br&gt;&lt;/div&gt;&lt;div style=&quot;height: 2px;&quot;&gt;&lt;br&gt;&lt;/div&gt;&lt;div style=&quot;height: 2px;&quot;&gt;&lt;br&gt;&lt;/div&gt;&lt;div style=&quot;height: 2px;&quot;&gt;&lt;br&gt;&lt;/div&gt;&lt;div style=&quot;height: 2px;&quot;&gt;&lt;br&gt;&lt;/div&gt;&lt;/div&gt;" style="verticalAlign=top;align=left;overflow=fill;html=1;whiteSpace=wrap;" vertex="1" parent="1">
          <mxGeometry x="6520" y="3490" width="140" height="60" as="geometry" />
        </mxCell>
        <mxCell id="pK2yrHicKk5-gGtidhXw-45" value="" style="endArrow=diamondThin;endFill=1;endSize=24;html=1;rounded=0;entryX=1;entryY=0.5;entryDx=0;entryDy=0;exitX=0;exitY=0.5;exitDx=0;exitDy=0;" edge="1" parent="1" source="pK2yrHicKk5-gGtidhXw-42" target="pK2yrHicKk5-gGtidhXw-44">
          <mxGeometry width="160" relative="1" as="geometry">
            <mxPoint x="6810" y="3530" as="sourcePoint" />
            <mxPoint x="6630" y="3530" as="targetPoint" />
          </mxGeometry>
        </mxCell>
        <mxCell id="pK2yrHicKk5-gGtidhXw-46" value="&lt;font style=&quot;font-size: 15px;&quot;&gt;*&lt;/font&gt;" style="edgeLabel;html=1;align=center;verticalAlign=middle;resizable=0;points=[];" connectable="0" vertex="1" parent="pK2yrHicKk5-gGtidhXw-45">
          <mxGeometry x="-0.8074" relative="1" as="geometry">
            <mxPoint y="-12" as="offset" />
          </mxGeometry>
        </mxCell>
        <mxCell id="pK2yrHicKk5-gGtidhXw-47" value="&lt;p style=&quot;margin:0px;margin-top:4px;text-align:center;&quot;&gt;&lt;/p&gt;&lt;div style=&quot;height:2px;&quot;&gt;&lt;/div&gt;&lt;div style=&quot;text-align: center;&quot;&gt;&lt;span style=&quot;background-color: initial;&quot;&gt;&lt;b&gt;&amp;nbsp;&lt;/b&gt;&lt;/span&gt;&lt;/div&gt;&lt;div style=&quot;text-align: center;&quot;&gt;&lt;span style=&quot;background-color: initial;&quot;&gt;&lt;b&gt;Realm:&lt;/b&gt;Company&lt;/span&gt;&lt;/div&gt;&lt;div style=&quot;height:2px;&quot;&gt;&lt;div style=&quot;height: 2px;&quot;&gt;&lt;span style=&quot;background-color: initial;&quot;&gt;&lt;br&gt;&lt;/span&gt;&lt;/div&gt;&lt;div style=&quot;height: 2px;&quot;&gt;&lt;span style=&quot;background-color: initial;&quot;&gt;&lt;br&gt;&lt;/span&gt;&lt;/div&gt;&lt;div style=&quot;height: 2px;&quot;&gt;&lt;span style=&quot;background-color: initial;&quot;&gt;&lt;br&gt;&lt;/span&gt;&lt;/div&gt;&lt;div style=&quot;height: 2px;&quot;&gt;&lt;span style=&quot;background-color: initial;&quot;&gt;&lt;br&gt;&lt;/span&gt;&lt;/div&gt;&lt;div style=&quot;height: 2px;&quot;&gt;&lt;span style=&quot;background-color: initial;&quot;&gt;&lt;br&gt;&lt;/span&gt;&lt;/div&gt;&lt;div style=&quot;height: 2px;&quot;&gt;&lt;span style=&quot;background-color: initial;&quot;&gt;&lt;br&gt;&lt;/span&gt;&lt;/div&gt;&lt;div style=&quot;height: 2px;&quot;&gt;&lt;br&gt;&lt;/div&gt;&lt;div style=&quot;height: 2px;&quot;&gt;&lt;br&gt;&lt;/div&gt;&lt;div style=&quot;height: 2px;&quot;&gt;&lt;br&gt;&lt;/div&gt;&lt;div style=&quot;height: 2px;&quot;&gt;&lt;br&gt;&lt;/div&gt;&lt;div style=&quot;height: 2px;&quot;&gt;&lt;br&gt;&lt;/div&gt;&lt;/div&gt;" style="verticalAlign=middle;align=left;overflow=fill;html=1;whiteSpace=wrap;" vertex="1" parent="1">
          <mxGeometry x="6550" y="3738" width="140" height="56" as="geometry" />
        </mxCell>
        <mxCell id="pK2yrHicKk5-gGtidhXw-48" value="" style="endArrow=diamondThin;endFill=1;endSize=24;html=1;rounded=0;entryX=1;entryY=0.5;entryDx=0;entryDy=0;exitX=0;exitY=0.5;exitDx=0;exitDy=0;" edge="1" parent="1" source="pK2yrHicKk5-gGtidhXw-5" target="pK2yrHicKk5-gGtidhXw-47">
          <mxGeometry width="160" relative="1" as="geometry">
            <mxPoint x="6875" y="3780" as="sourcePoint" />
            <mxPoint x="6700" y="3780" as="targetPoint" />
          </mxGeometry>
        </mxCell>
        <mxCell id="pK2yrHicKk5-gGtidhXw-49" value="&lt;font style=&quot;font-size: 15px;&quot;&gt;*&lt;/font&gt;" style="edgeLabel;html=1;align=center;verticalAlign=middle;resizable=0;points=[];" connectable="0" vertex="1" parent="pK2yrHicKk5-gGtidhXw-48">
          <mxGeometry x="-0.8074" relative="1" as="geometry">
            <mxPoint y="-12" as="offset" />
          </mxGeometry>
        </mxCell>
        <mxCell id="pK2yrHicKk5-gGtidhXw-51" value="&lt;p style=&quot;margin:0px;margin-top:4px;text-align:center;&quot;&gt;&lt;/p&gt;&lt;div style=&quot;height:2px;&quot;&gt;&lt;/div&gt;&lt;div style=&quot;text-align: center;&quot;&gt;&lt;span style=&quot;background-color: initial;&quot;&gt;&lt;b&gt;&amp;nbsp;BMWGroup:&lt;/b&gt;Company&lt;/span&gt;&lt;/div&gt;&lt;hr size=&quot;1&quot; style=&quot;border-style:solid;&quot;&gt;&lt;div style=&quot;height:2px;&quot;&gt;&lt;div style=&quot;height: 2px;&quot;&gt;&amp;nbsp;r&lt;span style=&quot;background-color: initial;&quot;&gt;ealm&lt;sup&gt;1&lt;/sup&gt;: BMW&lt;/span&gt;&lt;/div&gt;&lt;div style=&quot;height: 2px;&quot;&gt;&lt;span style=&quot;background-color: initial;&quot;&gt;&lt;br&gt;&lt;/span&gt;&lt;/div&gt;&lt;div style=&quot;height: 2px;&quot;&gt;&lt;span style=&quot;background-color: initial;&quot;&gt;&lt;br&gt;&lt;/span&gt;&lt;/div&gt;&lt;div style=&quot;height: 2px;&quot;&gt;&lt;span style=&quot;background-color: initial;&quot;&gt;&lt;br&gt;&lt;/span&gt;&lt;/div&gt;&lt;div style=&quot;height: 2px;&quot;&gt;&lt;span style=&quot;background-color: initial;&quot;&gt;&lt;br&gt;&lt;/span&gt;&lt;/div&gt;&lt;div style=&quot;height: 2px;&quot;&gt;&lt;span style=&quot;background-color: initial;&quot;&gt;&lt;br&gt;&lt;/span&gt;&lt;/div&gt;&lt;div style=&quot;height: 2px;&quot;&gt;&lt;span style=&quot;background-color: initial;&quot;&gt;&lt;br&gt;&lt;/span&gt;&lt;/div&gt;&lt;div style=&quot;height: 2px;&quot;&gt;&lt;br&gt;&lt;/div&gt;&lt;div style=&quot;height: 2px;&quot;&gt;&lt;br&gt;&lt;/div&gt;&lt;div style=&quot;height: 2px;&quot;&gt;&lt;br&gt;&lt;/div&gt;&lt;div style=&quot;height: 2px;&quot;&gt;&lt;br&gt;&lt;/div&gt;&lt;div style=&quot;height: 2px;&quot;&gt;&lt;br&gt;&lt;/div&gt;&lt;/div&gt;" style="verticalAlign=top;align=left;overflow=fill;html=1;whiteSpace=wrap;" vertex="1" parent="1">
          <mxGeometry x="6450" y="4525" width="140" height="60" as="geometry" />
        </mxCell>
        <mxCell id="pK2yrHicKk5-gGtidhXw-52" value="" style="endArrow=diamondThin;endFill=1;endSize=24;html=1;rounded=0;entryX=1;entryY=0.5;entryDx=0;entryDy=0;exitX=0;exitY=0.5;exitDx=0;exitDy=0;" edge="1" parent="1" source="pK2yrHicKk5-gGtidhXw-26" target="pK2yrHicKk5-gGtidhXw-51">
          <mxGeometry width="160" relative="1" as="geometry">
            <mxPoint x="6750" y="4582" as="sourcePoint" />
            <mxPoint x="6610" y="4581" as="targetPoint" />
          </mxGeometry>
        </mxCell>
        <mxCell id="pK2yrHicKk5-gGtidhXw-53" value="&lt;font style=&quot;font-size: 15px;&quot;&gt;*&lt;/font&gt;" style="edgeLabel;html=1;align=center;verticalAlign=middle;resizable=0;points=[];" connectable="0" vertex="1" parent="pK2yrHicKk5-gGtidhXw-52">
          <mxGeometry x="-0.8074" relative="1" as="geometry">
            <mxPoint y="-12" as="offset" />
          </mxGeometry>
        </mxCell>
        <mxCell id="pK2yrHicKk5-gGtidhXw-54" value="&lt;p style=&quot;margin:0px;margin-top:4px;text-align:center;&quot;&gt;&lt;/p&gt;&lt;div style=&quot;height:2px;&quot;&gt;&lt;/div&gt;&lt;div style=&quot;text-align: center;&quot;&gt;&lt;span style=&quot;background-color: initial;&quot;&gt;&lt;b&gt;&amp;nbsp;Bosch:&lt;/b&gt;Company&lt;/span&gt;&lt;/div&gt;&lt;hr size=&quot;1&quot; style=&quot;border-style:solid;&quot;&gt;&lt;div style=&quot;height:2px;&quot;&gt;&lt;div style=&quot;height: 2px;&quot;&gt;&amp;nbsp;r&lt;span style=&quot;background-color: initial;&quot;&gt;ealm&lt;sup&gt;1&lt;/sup&gt;: Bosch&lt;/span&gt;&lt;/div&gt;&lt;div style=&quot;height: 2px;&quot;&gt;&lt;span style=&quot;background-color: initial;&quot;&gt;&lt;br&gt;&lt;/span&gt;&lt;/div&gt;&lt;div style=&quot;height: 2px;&quot;&gt;&lt;span style=&quot;background-color: initial;&quot;&gt;&lt;br&gt;&lt;/span&gt;&lt;/div&gt;&lt;div style=&quot;height: 2px;&quot;&gt;&lt;span style=&quot;background-color: initial;&quot;&gt;&lt;br&gt;&lt;/span&gt;&lt;/div&gt;&lt;div style=&quot;height: 2px;&quot;&gt;&lt;span style=&quot;background-color: initial;&quot;&gt;&lt;br&gt;&lt;/span&gt;&lt;/div&gt;&lt;div style=&quot;height: 2px;&quot;&gt;&lt;span style=&quot;background-color: initial;&quot;&gt;&lt;br&gt;&lt;/span&gt;&lt;/div&gt;&lt;div style=&quot;height: 2px;&quot;&gt;&lt;span style=&quot;background-color: initial;&quot;&gt;&lt;br&gt;&lt;/span&gt;&lt;/div&gt;&lt;div style=&quot;height: 2px;&quot;&gt;&lt;br&gt;&lt;/div&gt;&lt;div style=&quot;height: 2px;&quot;&gt;&lt;br&gt;&lt;/div&gt;&lt;div style=&quot;height: 2px;&quot;&gt;&lt;br&gt;&lt;/div&gt;&lt;div style=&quot;height: 2px;&quot;&gt;&lt;br&gt;&lt;/div&gt;&lt;div style=&quot;height: 2px;&quot;&gt;&lt;br&gt;&lt;/div&gt;&lt;/div&gt;" style="verticalAlign=top;align=left;overflow=fill;html=1;whiteSpace=wrap;" vertex="1" parent="1">
          <mxGeometry x="7250" y="4525.75" width="140" height="60" as="geometry" />
        </mxCell>
        <mxCell id="pK2yrHicKk5-gGtidhXw-55" value="" style="endArrow=diamondThin;endFill=1;endSize=24;html=1;rounded=0;entryX=0;entryY=0.5;entryDx=0;entryDy=0;exitX=1;exitY=0.5;exitDx=0;exitDy=0;" edge="1" parent="1" source="pK2yrHicKk5-gGtidhXw-37" target="pK2yrHicKk5-gGtidhXw-54">
          <mxGeometry width="160" relative="1" as="geometry">
            <mxPoint x="6680" y="4561" as="sourcePoint" />
            <mxPoint x="6600" y="4561" as="targetPoint" />
          </mxGeometry>
        </mxCell>
        <mxCell id="pK2yrHicKk5-gGtidhXw-56" value="&lt;font style=&quot;font-size: 15px;&quot;&gt;*&lt;/font&gt;" style="edgeLabel;html=1;align=center;verticalAlign=middle;resizable=0;points=[];" connectable="0" vertex="1" parent="pK2yrHicKk5-gGtidhXw-55">
          <mxGeometry x="-0.8074" relative="1" as="geometry">
            <mxPoint y="-12" as="offset" />
          </mxGeometry>
        </mxCell>
        <mxCell id="pK2yrHicKk5-gGtidhXw-57" value="&lt;p style=&quot;margin:0px;margin-top:4px;text-align:center;&quot;&gt;&lt;/p&gt;&lt;div style=&quot;height:2px;&quot;&gt;&lt;/div&gt;&lt;span style=&quot;font-weight: 700;&quot;&gt;&lt;div style=&quot;text-align: center;&quot;&gt;&lt;span style=&quot;background-color: initial;&quot;&gt;&amp;nbsp;Role&lt;/span&gt;&lt;/div&gt;&lt;/span&gt;&lt;hr size=&quot;1&quot; style=&quot;border-style:solid;&quot;&gt;&lt;div style=&quot;height:2px;&quot;&gt;&lt;div style=&quot;height: 2px;&quot;&gt;&lt;br&gt;&lt;/div&gt;&lt;div style=&quot;height: 2px;&quot;&gt;&lt;br&gt;&lt;/div&gt;&lt;div style=&quot;height: 2px;&quot;&gt;&lt;br&gt;&lt;/div&gt;&lt;div style=&quot;height: 2px;&quot;&gt;&amp;nbsp;name&lt;sup&gt;3&lt;/sup&gt;: String&lt;br&gt;&lt;/div&gt;&lt;div style=&quot;height: 2px;&quot;&gt;&lt;br&gt;&lt;/div&gt;&lt;div style=&quot;height: 2px;&quot;&gt;&lt;br&gt;&lt;/div&gt;&lt;div style=&quot;height: 2px;&quot;&gt;&lt;br&gt;&lt;/div&gt;&lt;div style=&quot;height: 2px;&quot;&gt;&lt;br&gt;&lt;/div&gt;&lt;div style=&quot;height: 2px;&quot;&gt;&lt;br&gt;&lt;/div&gt;&lt;div style=&quot;height: 2px;&quot;&gt;&lt;br&gt;&lt;/div&gt;&lt;div style=&quot;height: 2px;&quot;&gt;&lt;br&gt;&lt;/div&gt;&lt;/div&gt;" style="verticalAlign=top;align=left;overflow=fill;html=1;whiteSpace=wrap;" vertex="1" parent="1">
          <mxGeometry x="7085" y="3485" width="140" height="70" as="geometry" />
        </mxCell>
        <mxCell id="pK2yrHicKk5-gGtidhXw-58" value="" style="endArrow=diamondThin;endFill=1;endSize=24;html=1;rounded=0;entryX=0;entryY=0.5;entryDx=0;entryDy=0;exitX=1;exitY=0.5;exitDx=0;exitDy=0;" edge="1" parent="1" source="pK2yrHicKk5-gGtidhXw-42" target="pK2yrHicKk5-gGtidhXw-57">
          <mxGeometry width="160" relative="1" as="geometry">
            <mxPoint x="6800" y="3530" as="sourcePoint" />
            <mxPoint x="6670" y="3530" as="targetPoint" />
          </mxGeometry>
        </mxCell>
        <mxCell id="pK2yrHicKk5-gGtidhXw-59" value="&lt;font style=&quot;font-size: 15px;&quot;&gt;*&lt;/font&gt;" style="edgeLabel;html=1;align=center;verticalAlign=middle;resizable=0;points=[];" connectable="0" vertex="1" parent="pK2yrHicKk5-gGtidhXw-58">
          <mxGeometry x="-0.8074" relative="1" as="geometry">
            <mxPoint y="-12" as="offset" />
          </mxGeometry>
        </mxCell>
        <mxCell id="pK2yrHicKk5-gGtidhXw-61" value="&lt;p style=&quot;margin:0px;margin-top:4px;text-align:center;&quot;&gt;&lt;/p&gt;&lt;div style=&quot;height:2px;&quot;&gt;&lt;/div&gt;&lt;span style=&quot;font-weight: 700;&quot;&gt;&lt;div style=&quot;text-align: center;&quot;&gt;&lt;span style=&quot;background-color: initial;&quot;&gt;&amp;nbsp;Role&lt;/span&gt;&lt;/div&gt;&lt;/span&gt;&lt;hr size=&quot;1&quot; style=&quot;border-style:solid;&quot;&gt;&lt;div style=&quot;height:2px;&quot;&gt;&lt;div style=&quot;height: 2px;&quot;&gt;&lt;span style=&quot;background-color: initial;&quot;&gt;&amp;nbsp;name&lt;/span&gt;&lt;sup style=&quot;background-color: initial;&quot;&gt;1&lt;/sup&gt;&lt;span style=&quot;background-color: initial;&quot;&gt;: engine_role&lt;/span&gt;&lt;br&gt;&lt;/div&gt;&lt;div style=&quot;height: 2px;&quot;&gt;&lt;br&gt;&lt;/div&gt;&lt;div style=&quot;height: 2px;&quot;&gt;&lt;br&gt;&lt;/div&gt;&lt;div style=&quot;height: 2px;&quot;&gt;&lt;br&gt;&lt;/div&gt;&lt;div style=&quot;height: 2px;&quot;&gt;&lt;br&gt;&lt;/div&gt;&lt;div style=&quot;height: 2px;&quot;&gt;&lt;br&gt;&lt;/div&gt;&lt;div style=&quot;height: 2px;&quot;&gt;&lt;br&gt;&lt;/div&gt;&lt;div style=&quot;height: 2px;&quot;&gt;&lt;br&gt;&lt;/div&gt;&lt;/div&gt;" style="verticalAlign=top;align=left;overflow=fill;html=1;whiteSpace=wrap;" vertex="1" parent="1">
          <mxGeometry x="6794" y="4370.75" width="140" height="60" as="geometry" />
        </mxCell>
        <mxCell id="pK2yrHicKk5-gGtidhXw-63" value="&lt;p style=&quot;margin:0px;margin-top:4px;text-align:center;&quot;&gt;&lt;/p&gt;&lt;div style=&quot;height:2px;&quot;&gt;&lt;/div&gt;&lt;span style=&quot;font-weight: 700;&quot;&gt;&lt;div style=&quot;text-align: center;&quot;&gt;&lt;span style=&quot;background-color: initial;&quot;&gt;&amp;nbsp;Role&lt;/span&gt;&lt;/div&gt;&lt;/span&gt;&lt;hr size=&quot;1&quot; style=&quot;border-style:solid;&quot;&gt;&lt;div style=&quot;height:2px;&quot;&gt;&lt;div style=&quot;height: 2px;&quot;&gt;&lt;span style=&quot;background-color: initial;&quot;&gt;&amp;nbsp;name&lt;/span&gt;&lt;sup style=&quot;background-color: initial;&quot;&gt;1&lt;/sup&gt;&lt;span style=&quot;background-color: initial;&quot;&gt;: mm_architect_role&lt;/span&gt;&lt;br&gt;&lt;/div&gt;&lt;div style=&quot;height: 2px;&quot;&gt;&lt;br&gt;&lt;/div&gt;&lt;div style=&quot;height: 2px;&quot;&gt;&lt;br&gt;&lt;/div&gt;&lt;div style=&quot;height: 2px;&quot;&gt;&lt;br&gt;&lt;/div&gt;&lt;div style=&quot;height: 2px;&quot;&gt;&lt;br&gt;&lt;/div&gt;&lt;div style=&quot;height: 2px;&quot;&gt;&lt;br&gt;&lt;/div&gt;&lt;div style=&quot;height: 2px;&quot;&gt;&lt;br&gt;&lt;/div&gt;&lt;div style=&quot;height: 2px;&quot;&gt;&lt;br&gt;&lt;/div&gt;&lt;/div&gt;" style="verticalAlign=top;align=left;overflow=fill;html=1;whiteSpace=wrap;" vertex="1" parent="1">
          <mxGeometry x="6790" y="4680.75" width="160" height="60" as="geometry" />
        </mxCell>
        <mxCell id="pK2yrHicKk5-gGtidhXw-64" value="&lt;p style=&quot;margin:0px;margin-top:4px;text-align:center;&quot;&gt;&lt;/p&gt;&lt;div style=&quot;height:2px;&quot;&gt;&lt;/div&gt;&lt;span style=&quot;font-weight: 700;&quot;&gt;&lt;div style=&quot;text-align: center;&quot;&gt;&lt;span style=&quot;background-color: initial;&quot;&gt;&amp;nbsp;Role&lt;/span&gt;&lt;/div&gt;&lt;/span&gt;&lt;hr size=&quot;1&quot; style=&quot;border-style:solid;&quot;&gt;&lt;div style=&quot;height:2px;&quot;&gt;&lt;div style=&quot;height: 2px;&quot;&gt;&lt;span style=&quot;background-color: initial;&quot;&gt;&amp;nbsp;name&lt;/span&gt;&lt;sup style=&quot;background-color: initial;&quot;&gt;1&lt;/sup&gt;&lt;span style=&quot;background-color: initial;&quot;&gt;: energySupplier_role&lt;/span&gt;&lt;br&gt;&lt;/div&gt;&lt;div style=&quot;height: 2px;&quot;&gt;&lt;br&gt;&lt;/div&gt;&lt;div style=&quot;height: 2px;&quot;&gt;&lt;br&gt;&lt;/div&gt;&lt;div style=&quot;height: 2px;&quot;&gt;&lt;br&gt;&lt;/div&gt;&lt;div style=&quot;height: 2px;&quot;&gt;&lt;br&gt;&lt;/div&gt;&lt;div style=&quot;height: 2px;&quot;&gt;&lt;br&gt;&lt;/div&gt;&lt;div style=&quot;height: 2px;&quot;&gt;&lt;br&gt;&lt;/div&gt;&lt;div style=&quot;height: 2px;&quot;&gt;&lt;br&gt;&lt;/div&gt;&lt;/div&gt;" style="verticalAlign=top;align=left;overflow=fill;html=1;whiteSpace=wrap;" vertex="1" parent="1">
          <mxGeometry x="6960" y="4370.75" width="160" height="60" as="geometry" />
        </mxCell>
        <mxCell id="pK2yrHicKk5-gGtidhXw-65" value="&lt;p style=&quot;margin:0px;margin-top:4px;text-align:center;&quot;&gt;&lt;/p&gt;&lt;div style=&quot;height:2px;&quot;&gt;&lt;/div&gt;&lt;span style=&quot;font-weight: 700;&quot;&gt;&lt;div style=&quot;text-align: center;&quot;&gt;&lt;span style=&quot;background-color: initial;&quot;&gt;&amp;nbsp;Role&lt;/span&gt;&lt;/div&gt;&lt;/span&gt;&lt;hr size=&quot;1&quot; style=&quot;border-style:solid;&quot;&gt;&lt;div style=&quot;height:2px;&quot;&gt;&lt;div style=&quot;height: 2px;&quot;&gt;&lt;span style=&quot;background-color: initial;&quot;&gt;&amp;nbsp;name&lt;/span&gt;&lt;sup style=&quot;background-color: initial;&quot;&gt;1&lt;/sup&gt;&lt;span style=&quot;background-color: initial;&quot;&gt;: expert_electrical_role&lt;/span&gt;&lt;br&gt;&lt;/div&gt;&lt;div style=&quot;height: 2px;&quot;&gt;&lt;br&gt;&lt;/div&gt;&lt;div style=&quot;height: 2px;&quot;&gt;&lt;br&gt;&lt;/div&gt;&lt;div style=&quot;height: 2px;&quot;&gt;&lt;br&gt;&lt;/div&gt;&lt;div style=&quot;height: 2px;&quot;&gt;&lt;br&gt;&lt;/div&gt;&lt;div style=&quot;height: 2px;&quot;&gt;&lt;br&gt;&lt;/div&gt;&lt;div style=&quot;height: 2px;&quot;&gt;&lt;br&gt;&lt;/div&gt;&lt;div style=&quot;height: 2px;&quot;&gt;&lt;br&gt;&lt;/div&gt;&lt;/div&gt;" style="verticalAlign=top;align=left;overflow=fill;html=1;whiteSpace=wrap;" vertex="1" parent="1">
          <mxGeometry x="7200" y="4601.5" width="160" height="60" as="geometry" />
        </mxCell>
        <mxCell id="pK2yrHicKk5-gGtidhXw-66" value="&lt;p style=&quot;margin:0px;margin-top:4px;text-align:center;&quot;&gt;&lt;/p&gt;&lt;div style=&quot;height:2px;&quot;&gt;&lt;/div&gt;&lt;span style=&quot;font-weight: 700;&quot;&gt;&lt;div style=&quot;text-align: center;&quot;&gt;&lt;span style=&quot;background-color: initial;&quot;&gt;&amp;nbsp;Role&lt;/span&gt;&lt;/div&gt;&lt;/span&gt;&lt;hr size=&quot;1&quot; style=&quot;border-style:solid;&quot;&gt;&lt;div style=&quot;height:2px;&quot;&gt;&lt;div style=&quot;height: 2px;&quot;&gt;&lt;span style=&quot;background-color: initial;&quot;&gt;&amp;nbsp;name&lt;/span&gt;&lt;sup style=&quot;background-color: initial;&quot;&gt;1&lt;/sup&gt;&lt;span style=&quot;background-color: initial;&quot;&gt;: electrical_&lt;/span&gt;&lt;span style=&quot;background-color: initial;&quot;&gt;employee&lt;/span&gt;&lt;span style=&quot;background-color: initial;&quot;&gt;_role&lt;/span&gt;&lt;/div&gt;&lt;div style=&quot;height: 2px;&quot;&gt;&lt;br&gt;&lt;/div&gt;&lt;div style=&quot;height: 2px;&quot;&gt;&lt;br&gt;&lt;/div&gt;&lt;div style=&quot;height: 2px;&quot;&gt;&lt;br&gt;&lt;/div&gt;&lt;div style=&quot;height: 2px;&quot;&gt;&lt;br&gt;&lt;/div&gt;&lt;div style=&quot;height: 2px;&quot;&gt;&lt;br&gt;&lt;/div&gt;&lt;div style=&quot;height: 2px;&quot;&gt;&lt;br&gt;&lt;/div&gt;&lt;div style=&quot;height: 2px;&quot;&gt;&lt;br&gt;&lt;/div&gt;&lt;/div&gt;" style="verticalAlign=top;align=left;overflow=fill;html=1;whiteSpace=wrap;" vertex="1" parent="1">
          <mxGeometry x="7200" y="4686" width="180" height="60" as="geometry" />
        </mxCell>
        <mxCell id="pK2yrHicKk5-gGtidhXw-69" value="" style="endArrow=none;html=1;edgeStyle=orthogonalEdgeStyle;rounded=0;entryX=0;entryY=0.5;entryDx=0;entryDy=0;exitX=1;exitY=0.5;exitDx=0;exitDy=0;" edge="1" parent="1" source="pK2yrHicKk5-gGtidhXw-36" target="pK2yrHicKk5-gGtidhXw-66">
          <mxGeometry relative="1" as="geometry">
            <mxPoint x="6650" y="4460" as="sourcePoint" />
            <mxPoint x="6810" y="4460" as="targetPoint" />
          </mxGeometry>
        </mxCell>
        <mxCell id="pK2yrHicKk5-gGtidhXw-72" value="" style="endArrow=none;html=1;edgeStyle=orthogonalEdgeStyle;rounded=0;entryX=0;entryY=0.5;entryDx=0;entryDy=0;exitX=1;exitY=0.75;exitDx=0;exitDy=0;" edge="1" parent="1" source="pK2yrHicKk5-gGtidhXw-37" target="pK2yrHicKk5-gGtidhXw-65">
          <mxGeometry relative="1" as="geometry">
            <mxPoint x="7130" y="4726" as="sourcePoint" />
            <mxPoint x="7210" y="4726" as="targetPoint" />
          </mxGeometry>
        </mxCell>
        <mxCell id="pK2yrHicKk5-gGtidhXw-73" value="" style="endArrow=none;html=1;edgeStyle=orthogonalEdgeStyle;rounded=0;entryX=0;entryY=0.5;entryDx=0;entryDy=0;exitX=1;exitY=0.75;exitDx=0;exitDy=0;" edge="1" parent="1" source="pK2yrHicKk5-gGtidhXw-37" target="pK2yrHicKk5-gGtidhXw-66">
          <mxGeometry relative="1" as="geometry">
            <mxPoint x="7130" y="4726" as="sourcePoint" />
            <mxPoint x="7210" y="4726" as="targetPoint" />
          </mxGeometry>
        </mxCell>
        <mxCell id="pK2yrHicKk5-gGtidhXw-74" value="" style="endArrow=none;html=1;edgeStyle=orthogonalEdgeStyle;rounded=0;entryX=1;entryY=0.5;entryDx=0;entryDy=0;exitX=0;exitY=0.5;exitDx=0;exitDy=0;" edge="1" parent="1" source="pK2yrHicKk5-gGtidhXw-63" target="pK2yrHicKk5-gGtidhXw-28">
          <mxGeometry relative="1" as="geometry">
            <mxPoint x="7130" y="4726" as="sourcePoint" />
            <mxPoint x="7210" y="4726" as="targetPoint" />
          </mxGeometry>
        </mxCell>
        <mxCell id="pK2yrHicKk5-gGtidhXw-76" value="" style="endArrow=none;html=1;edgeStyle=orthogonalEdgeStyle;rounded=0;entryX=0.5;entryY=1;entryDx=0;entryDy=0;exitX=0.5;exitY=0;exitDx=0;exitDy=0;" edge="1" parent="1" source="pK2yrHicKk5-gGtidhXw-37" target="pK2yrHicKk5-gGtidhXw-64">
          <mxGeometry relative="1" as="geometry">
            <mxPoint x="6600" y="4721" as="sourcePoint" />
            <mxPoint x="6700" y="4721" as="targetPoint" />
          </mxGeometry>
        </mxCell>
        <mxCell id="pK2yrHicKk5-gGtidhXw-77" value="" style="endArrow=none;html=1;edgeStyle=orthogonalEdgeStyle;rounded=0;entryX=0;entryY=0.5;entryDx=0;entryDy=0;exitX=1;exitY=0.5;exitDx=0;exitDy=0;" edge="1" parent="1" source="pK2yrHicKk5-gGtidhXw-27" target="pK2yrHicKk5-gGtidhXw-61">
          <mxGeometry relative="1" as="geometry">
            <mxPoint x="7050" y="4495" as="sourcePoint" />
            <mxPoint x="7050" y="4430" as="targetPoint" />
          </mxGeometry>
        </mxCell>
        <mxCell id="pK2yrHicKk5-gGtidhXw-78" value="" style="endArrow=none;html=1;edgeStyle=orthogonalEdgeStyle;rounded=0;entryX=0.886;entryY=0;entryDx=0;entryDy=0;exitX=0.5;exitY=1;exitDx=0;exitDy=0;entryPerimeter=0;" edge="1" parent="1" source="pK2yrHicKk5-gGtidhXw-64" target="pK2yrHicKk5-gGtidhXw-26">
          <mxGeometry relative="1" as="geometry">
            <mxPoint x="7130" y="4726" as="sourcePoint" />
            <mxPoint x="7210" y="4726" as="targetPoint" />
          </mxGeometry>
        </mxCell>
        <mxCell id="pK2yrHicKk5-gGtidhXw-79" value="" style="endArrow=none;html=1;edgeStyle=orthogonalEdgeStyle;rounded=0;entryX=0.883;entryY=0.01;entryDx=0;entryDy=0;exitX=0.25;exitY=1;exitDx=0;exitDy=0;entryPerimeter=0;" edge="1" parent="1" source="pK2yrHicKk5-gGtidhXw-61" target="pK2yrHicKk5-gGtidhXw-26">
          <mxGeometry relative="1" as="geometry">
            <mxPoint x="6800" y="4721" as="sourcePoint" />
            <mxPoint x="6760" y="4721" as="targetPoint" />
          </mxGeometry>
        </mxCell>
        <mxCell id="pK2yrHicKk5-gGtidhXw-80" value="" style="endArrow=none;html=1;edgeStyle=orthogonalEdgeStyle;rounded=0;entryX=0.25;entryY=0;entryDx=0;entryDy=0;exitX=0.888;exitY=0.987;exitDx=0;exitDy=0;exitPerimeter=0;" edge="1" parent="1" source="pK2yrHicKk5-gGtidhXw-26" target="pK2yrHicKk5-gGtidhXw-63">
          <mxGeometry relative="1" as="geometry">
            <mxPoint x="6800" y="4721" as="sourcePoint" />
            <mxPoint x="6760" y="4721" as="targetPoint" />
          </mxGeometry>
        </mxCell>
      </root>
    </mxGraphModel>
  </diagram>
</mxfile>
